<svg id="Layer_1" data-name="Layer 1" xmlns="http://www.w3.org/2000/svg" viewBox="0 0 420.01 249.3"><defs><style>.cls-1{fill:#009444;}</style></defs><title>adnan</title><polygon class="cls-1" points="348.77 175.67 313.5 175.67 287.73 71.83 323 71.83 348.77 175.67"/><polygon class="cls-1" points="301.7 175.67 266.44 175.67 240.66 71.83 275.93 71.83 301.7 175.67"/><polygon class="cls-1" points="229.41 72.16 229.33 71.83 194.06 71.83 194.08 71.9 163.4 71.68 171.62 108.15 203.04 108.38 194.06 72.18 194.15 72.18 203.04 108.03 238.29 108.29 238.38 108.29 229.41 72.16"/><path class="cls-1" d="M329.81,423.41,327,412.08,319.27,381,318,375.62H282.68L284,381l7.66,30.87,0,.1.47,1.89c-6.69,18.25-20.92,28.59-41.12,28.59-30.23,0-48.42-18.68-48.42-50.63,0-30,17.94-49.15,45-49.15,15.73,0,27.53,6.15,33.92,17.69H328c-9.09-35.39-39.07-56.52-80.37-56.52-51.6,0-87.72,36.37-87.72,88s36.37,87.74,88,87.74c23.07,0,41.84-7.66,55.88-19.1l4.73,19h35.27Z" transform="translate(-88.63 -303.79)"/><path class="cls-1" d="M111.8,543.27v-.37c0-.41,0-.76,0-1.06a6.47,6.47,0,0,0-.23-1.16,1.34,1.34,0,0,0-.86-.91,5.11,5.11,0,0,0-1.42-.36c-.48,0-.83-.08-1-.08s-.12-.13-.18-.41a2.86,2.86,0,0,1,0-.88,1.09,1.09,0,0,1,.15-.57c1.31,0,2.61.1,3.88.18s2.55.13,3.83.13c1.07,0,2.13,0,3.18-.13s2.08-.14,3.08-.18a3.23,3.23,0,0,1,.1,1.19c0,.45-.08.67-.15.67a7.87,7.87,0,0,0-1.29.21,4.37,4.37,0,0,0-1.4.47,1.7,1.7,0,0,0-.42.8,4.73,4.73,0,0,0-.2,1.37v5.38a2.76,2.76,0,0,0,.15.83,2.26,2.26,0,0,1,.16.67c0,.28-.21.53-.62.75a9.42,9.42,0,0,1-1.14.54q-2.39.89-5.1,1.71a21.41,21.41,0,0,1-6.23.83,18.41,18.41,0,0,1-6.73-1.24,17.81,17.81,0,0,1-5.56-3.47A15.79,15.79,0,0,1,90,542.9a17,17,0,0,1,0-13.32A18.15,18.15,0,0,1,93.78,524a17.46,17.46,0,0,1,5.56-3.8,16.86,16.86,0,0,1,6.77-1.37c1.66,0,3.45.08,5.38.23a42.35,42.35,0,0,1,5.12.7c0,.14.14.58.32,1.32s.37,1.57.59,2.48.41,1.74.57,2.49a10.53,10.53,0,0,1,.23,1.37c0,.13-.14.29-.41.46a1.58,1.58,0,0,1-.88.26,2.38,2.38,0,0,1-.39,0,.54.54,0,0,1-.34-.18,14.4,14.4,0,0,0-.72-1.88,8.39,8.39,0,0,0-1.6-2.33,8.49,8.49,0,0,0-2.85-1.94,11,11,0,0,0-4.45-.78,9,9,0,0,0-4.73,1.17,8.54,8.54,0,0,0-3.08,3.15,15.06,15.06,0,0,0-1.65,4.5A25.06,25.06,0,0,0,96.7,535a24.3,24.3,0,0,0,.67,5.74,18.35,18.35,0,0,0,2,5.07,10.74,10.74,0,0,0,3.34,3.6,8.24,8.24,0,0,0,4.68,1.32,9.23,9.23,0,0,0,2.38-.26,11.24,11.24,0,0,0,1.6-.57,2.15,2.15,0,0,0,.28-.23.7.7,0,0,0,.13-.5Z" transform="translate(-88.63 -303.79)"/><path class="cls-1" d="M141.45,529.92a7.43,7.43,0,0,1,1.81.21,3,3,0,0,1,1.34.67,3.31,3.31,0,0,1,.36.93,5.53,5.53,0,0,1,.21,1.55,4.57,4.57,0,0,1-.39,1.76,4.62,4.62,0,0,1-1.06,1.58,2.17,2.17,0,0,1-1.55.65,1.79,1.79,0,0,1-1.19-.44c-.35-.3-.67-.56-1-.81l-.8-.75a1.61,1.61,0,0,0-1.07-.33,2.37,2.37,0,0,0-1.78.8,5.91,5.91,0,0,0-1.16,1.76,4.12,4.12,0,0,0-.42,1.52v6.16c0,.93,0,1.83,0,2.69a6.46,6.46,0,0,0,.37,2.07c.1.21.41.38.93.52a9.24,9.24,0,0,0,1.63.28c.57,0,.95.1,1.16.13a1.41,1.41,0,0,1,.18.93,2.2,2.2,0,0,1-.18.93c-1-.1-2.18-.19-3.65-.26s-2.73-.1-3.8-.1-2.23,0-3.49.1-2.39.16-3.39.26a2.2,2.2,0,0,1-.18-.93,1.41,1.41,0,0,1,.18-.93l1.06-.13a7.09,7.09,0,0,0,1.37-.28c.45-.14.71-.31.78-.52a5.87,5.87,0,0,0,.36-2c0-.79,0-1.72,0-2.79v-5.79c0-.18,0-.55,0-1.12s-.06-1.15-.13-1.75a3.78,3.78,0,0,0-.31-1.27,1.38,1.38,0,0,0-.91-.62,10,10,0,0,0-1.37-.31,7.86,7.86,0,0,0-.88-.11,1.16,1.16,0,0,1-.1-.44,2.36,2.36,0,0,1,0-.75q0-.36.15-.36a23.64,23.64,0,0,0,3.81-.62c1.25-.31,2.42-.65,3.49-1a23.13,23.13,0,0,0,2.53-1,1.18,1.18,0,0,1,.57.41c.21.25.31.4.31.47s-.09.48-.18,1-.16,1.12-.23,1.7-.11,1-.11,1.24.05.21.13.21a.26.26,0,0,0,.18,0c.42-.73.91-1.48,1.48-2.28a8.2,8.2,0,0,1,2-2A4.92,4.92,0,0,1,141.45,529.92Z" transform="translate(-88.63 -303.79)"/><path class="cls-1" d="M153.55,540.32a10.3,10.3,0,0,0,.78,4.32,6.48,6.48,0,0,0,4.26,3.77,7.75,7.75,0,0,0,2,.34,6.35,6.35,0,0,0,3.52-.85,13.65,13.65,0,0,0,2.12-1.69.7.7,0,0,1,.44.37,1.11,1.11,0,0,1,.18.57,1.88,1.88,0,0,1-.16.93,14,14,0,0,1-1.7,1.86,12.7,12.7,0,0,1-3.13,2.12,9.66,9.66,0,0,1-4.32.93,11.08,11.08,0,0,1-5.23-1.27,9.91,9.91,0,0,1-3.9-3.62,10.38,10.38,0,0,1-1.48-5.66,12,12,0,0,1,.93-4.63,14.36,14.36,0,0,1,2.51-4A12.15,12.15,0,0,1,154,531a9,9,0,0,1,4.19-1,10.08,10.08,0,0,1,4.19.78,7.59,7.59,0,0,1,2.71,2,7.94,7.94,0,0,1,1.48,2.51,7.28,7.28,0,0,1,.46,2.41,2.63,2.63,0,0,1-.39,1.44,1.25,1.25,0,0,1-.95.68c-1.14.1-2.42.2-3.83.28s-2.85.16-4.29.21Zm0-2,1,0c.57,0,1.23,0,2-.1l2.09-.15,1.45-.13c.31,0,.5-.15.57-.34a1.42,1.42,0,0,0,.1-.49,8.72,8.72,0,0,0-.31-2.33,4.62,4.62,0,0,0-1-1.91,2.27,2.27,0,0,0-1.81-.78,2.68,2.68,0,0,0-1.91.72,5.84,5.84,0,0,0-1.27,1.76,8.79,8.79,0,0,0-.7,2.1A9.23,9.23,0,0,0,153.6,538.3Z" transform="translate(-88.63 -303.79)"/><path class="cls-1" d="M176.78,540.32a10.47,10.47,0,0,0,.77,4.32,6.76,6.76,0,0,0,1.92,2.56,6.68,6.68,0,0,0,2.35,1.21,7.69,7.69,0,0,0,2.05.34,6.29,6.29,0,0,0,3.51-.85,13.19,13.19,0,0,0,2.12-1.69.68.68,0,0,1,.44.37,1.13,1.13,0,0,1,.19.57,2,2,0,0,1-.16.93,13.52,13.52,0,0,1-1.71,1.86,12.33,12.33,0,0,1-3.13,2.12,9.66,9.66,0,0,1-4.32.93,11.06,11.06,0,0,1-5.22-1.27,10,10,0,0,1-3.91-3.62,10.46,10.46,0,0,1-1.47-5.66,12,12,0,0,1,.93-4.63,14.36,14.36,0,0,1,2.51-4,12.24,12.24,0,0,1,3.59-2.82,9.1,9.1,0,0,1,4.19-1,10,10,0,0,1,4.19.78,7.54,7.54,0,0,1,2.72,2,8.09,8.09,0,0,1,1.47,2.51,7.07,7.07,0,0,1,.47,2.41,2.63,2.63,0,0,1-.39,1.44,1.28,1.28,0,0,1-.95.68c-1.14.1-2.42.2-3.83.28s-2.85.16-4.3.21Zm.05-2,1,0c.57,0,1.22,0,2-.1l2.1-.15,1.45-.13c.31,0,.5-.15.57-.34a1.42,1.42,0,0,0,.1-.49,8.72,8.72,0,0,0-.31-2.33,4.74,4.74,0,0,0-1-1.91,2.28,2.28,0,0,0-1.81-.78,2.73,2.73,0,0,0-1.92.72,5.81,5.81,0,0,0-1.26,1.76,8.37,8.37,0,0,0-.7,2.1A9.23,9.23,0,0,0,176.83,538.3Z" transform="translate(-88.63 -303.79)"/><path class="cls-1" d="M211,530a6.39,6.39,0,0,1,4.38,1.32,7,7,0,0,1,2,4,36.31,36.31,0,0,1,.51,6.65v3.26q0,1.61.06,2.79a5.87,5.87,0,0,0,.36,2,1.28,1.28,0,0,0,.8.52,6.68,6.68,0,0,0,1.4.28c.5,0,.85.1,1.06.13a1.48,1.48,0,0,1,.18.93,2.2,2.2,0,0,1-.18.93c-1-.1-2.1-.19-3.39-.26s-2.48-.1-3.54-.1-2.14,0-3.21.1-2.11.16-3.11.26a2.2,2.2,0,0,1-.18-.93,1.55,1.55,0,0,1,.18-.93c.35,0,.84-.11,1.48-.23s1-.35,1.16-.7a5.56,5.56,0,0,0,.31-1.71c0-.69.05-1.48.05-2.38V541.2a19.89,19.89,0,0,0-.28-3.44,6.37,6.37,0,0,0-1-2.64,2.39,2.39,0,0,0-2.07-1,4.68,4.68,0,0,0-2,.49,7,7,0,0,0-1.73,1.14,1.78,1.78,0,0,0-.7,1.16v8.28c0,.93,0,1.83,0,2.69a6.46,6.46,0,0,0,.37,2.07,1.18,1.18,0,0,0,.7.52,4.72,4.72,0,0,0,1.19.28l.95.13a1.41,1.41,0,0,1,.18.93,1.93,1.93,0,0,1-.18.93c-1-.1-2-.19-3.21-.26s-2.29-.1-3.36-.1-2.23,0-3.49.1-2.39.16-3.39.26a2.2,2.2,0,0,1-.18-.93,1.41,1.41,0,0,1,.18-.93l1.06-.13a7.09,7.09,0,0,0,1.37-.28c.45-.14.71-.31.78-.52a5.87,5.87,0,0,0,.36-2c0-.79,0-1.72,0-2.79v-5.79c0-.18,0-.55,0-1.12s-.06-1.15-.13-1.75a3.55,3.55,0,0,0-.31-1.27,1.38,1.38,0,0,0-.91-.62,10,10,0,0,0-1.37-.31,7.86,7.86,0,0,0-.88-.11,1.16,1.16,0,0,1-.1-.44,2.36,2.36,0,0,1,0-.75q0-.36.15-.36a23.64,23.64,0,0,0,3.81-.62c1.25-.31,2.42-.65,3.49-1a23.13,23.13,0,0,0,2.53-1,.84.84,0,0,1,.57.34.9.9,0,0,1,.31.54c0,.14-.09.44-.18.91s-.16.9-.23,1.32-.11.63-.11.67a.49.49,0,0,0,.06.31c.07,0,.19-.09.36-.26a11.81,11.81,0,0,1,1.94-1.71,15.46,15.46,0,0,1,2.59-1.5A6.19,6.19,0,0,1,211,530Z" transform="translate(-88.63 -303.79)"/><path class="cls-1" d="M244.13,519.42c1.07,0,2.29,0,3.65-.08s2.52-.13,3.49-.23a1.9,1.9,0,0,1,.18.9,1.48,1.48,0,0,1-.18,1c-.21,0-.56,0-1.06.08a4.25,4.25,0,0,0-1.37.36.93.93,0,0,0-.62.9,5,5,0,0,0,.39,1.66c.25.69.52,1.4.8,2.12q.83,2.32,1.71,4.74c.58,1.6,1.12,3.08,1.6,4.44s1,2.89,1.65,4.58c.56-1.52,1-2.89,1.48-4.14s.9-2.59,1.42-4.06l1.55-4.34c.52-1.43,1-2.71,1.37-3.83s.7-2,.91-2.51a4.46,4.46,0,0,1,.7-1.29,1.17,1.17,0,0,1,.85-.57c.24,0,.45.26.62.77.66,1.69,1.37,3.52,2.15,5.49l2.3,5.84q1.14,2.89,2.1,5.28t2.09,5.22c.42-1.34.79-2.56,1.14-3.64s.71-2.26,1.11-3.52.79-2.47,1.17-3.65.7-2.18,1-3,.45-1.41.52-1.69c.2-.65.43-1.35.67-2.09a6.44,6.44,0,0,0,.36-1.94c0-.31-.28-.55-.85-.72a9.47,9.47,0,0,0-1.79-.37c-.62-.07-1.05-.1-1.29-.1a1.48,1.48,0,0,1-.18-1,1.78,1.78,0,0,1,.18-.9c1.21.1,2.21.18,3,.23s1.8.08,3,.08,2.06,0,2.87-.13,1.73-.15,2.77-.18a1.9,1.9,0,0,1,.18.9,1.48,1.48,0,0,1-.18,1c-.21,0-.55,0-1,0a9,9,0,0,0-1.44.23,1.81,1.81,0,0,0-1,.6,14.18,14.18,0,0,0-1.11,1.81,14.37,14.37,0,0,0-1,2.38c-.79,2.38-1.52,4.56-2.17,6.54s-1.3,3.91-1.94,5.77-1.29,3.77-2,5.72-1.4,4.09-2.2,6.44a8.1,8.1,0,0,1-.95,1.76c-.4.55-.75.83-1.06.83a.72.72,0,0,1-.57-.24c-.14-.15-.28-.32-.42-.49l-8.32-21c-.56,1.66-1.07,3.17-1.53,4.55s-1,2.9-1.55,4.55l-1.74,5.05c-.58,1.71-1.12,3.28-1.6,4.73l-.41,1a10.78,10.78,0,0,1-.68,1.27c-.24.38-.46.57-.67.57a.72.72,0,0,1-.57-.24c-.14-.15-.27-.32-.41-.49l-9.11-25.61a19,19,0,0,0-.88-2.25l-.87-1.88a2.07,2.07,0,0,0-1-1,6.93,6.93,0,0,0-1.37-.5,5.21,5.21,0,0,0-1-.15,1.48,1.48,0,0,1-.18-1,1.9,1.9,0,0,1,.18-.9c1,.1,2.18.18,3.54.23S243.06,519.42,244.13,519.42Z" transform="translate(-88.63 -303.79)"/><path class="cls-1" d="M294.93,529.92a12.55,12.55,0,0,1,6.18,1.47,10.87,10.87,0,0,1,4.17,4,11.08,11.08,0,0,1,1.5,5.75,11.52,11.52,0,0,1-1.55,5.84,11.91,11.91,0,0,1-4.19,4.3,11.41,11.41,0,0,1-6,1.6,12.52,12.52,0,0,1-6.21-1.5,10.77,10.77,0,0,1-4.19-4.09,11.23,11.23,0,0,1-1.5-5.74,11.11,11.11,0,0,1,1.58-5.85A11.88,11.88,0,0,1,289,531.5,11.51,11.51,0,0,1,294.93,529.92Zm-.57,2.12a3,3,0,0,0-2.19.8,4.8,4.8,0,0,0-1.19,2.1,13.21,13.21,0,0,0-.52,2.77c-.09,1-.13,1.94-.13,2.87a19.8,19.8,0,0,0,.31,3.44,15.92,15.92,0,0,0,.93,3.31,7.28,7.28,0,0,0,1.6,2.48,3.29,3.29,0,0,0,2.38,1,3,3,0,0,0,2.2-.8A5.18,5.18,0,0,0,299,547.9a12.89,12.89,0,0,0,.54-2.75c.09-1,.13-1.92.13-2.82a20.1,20.1,0,0,0-.31-3.49,15.7,15.7,0,0,0-1-3.33,7.33,7.33,0,0,0-1.63-2.51A3.27,3.27,0,0,0,294.36,532Z" transform="translate(-88.63 -303.79)"/><path class="cls-1" d="M321.78,529.92a12.55,12.55,0,0,1,6.18,1.47,10.87,10.87,0,0,1,4.17,4,11.08,11.08,0,0,1,1.5,5.75,11.52,11.52,0,0,1-1.55,5.84,12,12,0,0,1-4.19,4.3,11.42,11.42,0,0,1-6,1.6,12.51,12.51,0,0,1-6.2-1.5,10.77,10.77,0,0,1-4.19-4.09,11.71,11.71,0,0,1,.07-11.59,12,12,0,0,1,4.25-4.21A11.48,11.48,0,0,1,321.78,529.92Zm-.57,2.12a3,3,0,0,0-2.2.8,5,5,0,0,0-1.19,2.1,13.89,13.89,0,0,0-.51,2.77c-.09,1-.13,1.94-.13,2.87a19.8,19.8,0,0,0,.31,3.44,15.33,15.33,0,0,0,.93,3.31,7.28,7.28,0,0,0,1.6,2.48,3.29,3.29,0,0,0,2.38,1,3,3,0,0,0,2.2-.8,5.29,5.29,0,0,0,1.22-2.07,12.89,12.89,0,0,0,.54-2.75c.09-1,.13-1.92.13-2.82a20.1,20.1,0,0,0-.31-3.49,15.7,15.7,0,0,0-1-3.33,7.33,7.33,0,0,0-1.63-2.51A3.27,3.27,0,0,0,321.21,532Z" transform="translate(-88.63 -303.79)"/><path class="cls-1" d="M350.08,530c.55,0,1,0,1.27,0a6.88,6.88,0,0,1,.75.07c.1,0,.17-.13.2-.41a5,5,0,0,0,.05-.72v-4.61a11.3,11.3,0,0,0-.05-1.24,4.28,4.28,0,0,0-.31-1.19c-.07-.21-.31-.38-.72-.52a7,7,0,0,0-1.3-.28c-.44-.05-.77-.08-1-.08s-.16-.25-.18-.75,0-.8.18-.9a43,43,0,0,0,5-.73c1.44-.31,2.57-.59,3.42-.85s1.28-.39,1.32-.39a.93.93,0,0,1,.49.36,1.58,1.58,0,0,1,.28.52,28.14,28.14,0,0,0-.57,5.12v23.69a8.22,8.22,0,0,0,.06,1,1.58,1.58,0,0,0,.41.88,1.43,1.43,0,0,0,1,.41c.49,0,.87.05,1.14.05h.11a1.06,1.06,0,0,1,.15.68,1.72,1.72,0,0,1-.31,1,22.83,22.83,0,0,0-2.51.39l-2.69.59-2.27.55a7.78,7.78,0,0,1-1.22.23c-.31,0-.47-.42-.47-1.24v-.78a.93.93,0,0,0,0-.23c0-.09-.06-.1-.13,0-.28.18-.73.45-1.37.83a13.26,13.26,0,0,1-2.23,1,7.26,7.26,0,0,1-2.61.47,8,8,0,0,1-4.53-1.4,10.33,10.33,0,0,1-3.36-3.77,11.24,11.24,0,0,1-1.26-5.33,10.7,10.7,0,0,1,1.39-5.56,12.75,12.75,0,0,1,3.52-3.88,16.2,16.2,0,0,1,4.37-2.28A12.75,12.75,0,0,1,350.08,530Zm-1.66,2.59a3.25,3.25,0,0,0-2.56,1.08,6.68,6.68,0,0,0-1.39,2.85,15.19,15.19,0,0,0-.44,3.78A14.56,14.56,0,0,0,345.4,547q1.37,2.64,3.75,2.64a3.37,3.37,0,0,0,1.45-.34,5.56,5.56,0,0,0,1.24-.77q.51-.44.51-.75v-13c0-.48-.38-1-1.16-1.5A4.92,4.92,0,0,0,348.42,532.56Z" transform="translate(-88.63 -303.79)"/><path class="cls-1" d="M387.12,519.31c.41,0,1.14,0,2.2,0l3.62-.08,4.16-.08c1.42,0,2.7,0,3.86-.07s2-.06,2.61-.06c.17,1.28.39,2.56.67,3.83s.54,2.49.78,3.62a1.09,1.09,0,0,1-.52.18,3.22,3.22,0,0,1-.67.08c-.42,0-.68-.14-.78-.41a13.82,13.82,0,0,0-2-3.6,4.19,4.19,0,0,0-3.49-1.47h-4.19a13.36,13.36,0,0,0-1.58.08,1.1,1.1,0,0,0-1,.49,3.53,3.53,0,0,0-.18,1c0,.42,0,.9,0,1.45V534c0,.14.22.26.67.37a6.93,6.93,0,0,0,1.5.15h2.64a7.64,7.64,0,0,0,2.3-.26,2.25,2.25,0,0,0,1.27-1,9.8,9.8,0,0,0,.88-2.23c.06-.27.27-.41.62-.41a1.34,1.34,0,0,1,.93.26v9.72a.85.85,0,0,1-.34.11,3.5,3.5,0,0,1-.54,0c-.45,0-.69-.12-.73-.36a6.9,6.9,0,0,0-.93-2.38,2.56,2.56,0,0,0-.82-.73,12.6,12.6,0,0,0-3.83-.36c-.45,0-1,0-1.53,0a8.92,8.92,0,0,0-1.47.21c-.42.1-.62.26-.62.47v8.92c0,.5,0,1,.07,1.58a4.11,4.11,0,0,0,.29,1.29,1.85,1.85,0,0,0,1.29.78,8.42,8.42,0,0,0,2,.26h3.31a8.11,8.11,0,0,0,2.66-.42,5.25,5.25,0,0,0,2.05-1.24,8.74,8.74,0,0,0,1.45-2,25.79,25.79,0,0,0,1.29-2.84c.07-.21.29-.31.67-.31a4.61,4.61,0,0,1,.93.1,1.46,1.46,0,0,1,.62.21c-.31.9-.65,1.88-1,2.95s-.73,2.1-1,3.1a23.27,23.27,0,0,0-.67,2.64H386.68c-1.74,0-3.23,0-4.45,0l-2.35,0a2,2,0,0,1-.19-.93,1.47,1.47,0,0,1,.19-.93l1.08-.13a9.11,9.11,0,0,0,1.4-.26c.45-.12.7-.28.77-.49a6.11,6.11,0,0,0,.37-2c0-.79.05-1.72.05-2.79V526.61c0-1.11,0-2-.05-2.82a6,6,0,0,0-.37-1.94c-.07-.24-.32-.41-.77-.52a10.48,10.48,0,0,0-1.4-.21c-.48,0-.84,0-1.08,0a1.58,1.58,0,0,1-.19-1,1.84,1.84,0,0,1,.19-.93c1.13.07,2.36.11,3.67.13S386.05,519.31,387.12,519.31Z" transform="translate(-88.63 -303.79)"/><path class="cls-1" d="M419.66,529.87a11.68,11.68,0,0,1,3.1.36c.86.24,1.71.45,2.54.62.13.55.29,1.27.46,2.15s.32,1.7.44,2.46a11.81,11.81,0,0,1,.18,1.6c0,.1-.11.19-.33.26a2.08,2.08,0,0,1-.6.1.93.93,0,0,1-.52-.13l-.46-.28a10.3,10.3,0,0,0-.83-2.3,5.24,5.24,0,0,0-1.66-2,4.62,4.62,0,0,0-2.84-.8,3.16,3.16,0,0,0-2.07.67,2.46,2.46,0,0,0-.83,2,2.78,2.78,0,0,0,.83,2.09,6.42,6.42,0,0,0,2,1.32c.81.35,1.58.71,2.31,1.09a24.6,24.6,0,0,1,2.58,1.39,6.59,6.59,0,0,1,2.05,2,6.32,6.32,0,0,1,.8,3.42,5.87,5.87,0,0,1-1.37,4.06,7.84,7.84,0,0,1-3.65,2.22,16.56,16.56,0,0,1-4.91.7,13.06,13.06,0,0,1-3.32-.44c-1.1-.29-2-.51-2.58-.65,0-.27-.08-.74-.13-1.39s-.11-1.36-.16-2.1-.08-1.4-.1-2,0-1,0-1.09.1-.26.29-.28l.49,0a2.32,2.32,0,0,1,.62.11.67.67,0,0,1,.47.36,7.34,7.34,0,0,0,1.29,3.36,5.07,5.07,0,0,0,2.07,1.66,5.6,5.6,0,0,0,2.12.46,2.66,2.66,0,0,0,2.1-.85,2.85,2.85,0,0,0,.75-1.89,2.64,2.64,0,0,0-.81-2,7.53,7.53,0,0,0-2-1.3c-.79-.36-1.59-.75-2.38-1.16a16.46,16.46,0,0,1-3.8-2.74,6.13,6.13,0,0,1-.67-7.32,7.14,7.14,0,0,1,2.32-2.15,11,11,0,0,1,3.06-1.21A13.4,13.4,0,0,1,419.66,529.87Z" transform="translate(-88.63 -303.79)"/><path class="cls-1" d="M439.42,530.9h5.74c.1,0,.18.08.23.23a1.26,1.26,0,0,1,.08.45,1.75,1.75,0,0,1-.36.9,2.6,2.6,0,0,1-.78.8h-4.91V545.8a4.93,4.93,0,0,0,.67,2.92,2.4,2.4,0,0,0,2.07.91,3.19,3.19,0,0,0,1.73-.54c.57-.37.89-.58,1-.65a.56.56,0,0,1,.21.28,1.11,1.11,0,0,1,.1.44,1.35,1.35,0,0,1-.13.52,1.1,1.1,0,0,1-.23.41,9.41,9.41,0,0,1-1,.94,10.13,10.13,0,0,1-1.92,1.26,5.25,5.25,0,0,1-2.48.6,7.71,7.71,0,0,1-3.08-.67,5.55,5.55,0,0,1-2.51-2.31,8.57,8.57,0,0,1-1-4.42V533.28h-3.57a.37.37,0,0,1-.23-.31,2.6,2.6,0,0,1,0-.36,9.7,9.7,0,0,1,.78-1,6.65,6.65,0,0,1,.82-.75h2.23v-2.69a28.21,28.21,0,0,0,2.82-2.69c.91-1,1.75-1.88,2.51-2.64a1.5,1.5,0,0,1,.8-.25c.26,0,.4.08.44.25Z" transform="translate(-88.63 -303.79)"/><path class="cls-1" d="M458.46,529.87a7.44,7.44,0,0,1,6.56,3.7,7.65,7.65,0,0,1,1,4V547a2.84,2.84,0,0,0,.34,1.53,1,1,0,0,0,.85.54,1.73,1.73,0,0,0,.93-.23,2.72,2.72,0,0,1,.52-.29c.24.11.36.38.36.83a1.52,1.52,0,0,1-.21.78c-.24.21-.64.52-1.19,1a10.67,10.67,0,0,1-1.86,1.16,4.77,4.77,0,0,1-2.12.52,3.87,3.87,0,0,1-2.35-.83,4.18,4.18,0,0,1-1.48-1.71,10,10,0,0,1-1.27.86,21.49,21.49,0,0,1-2.3,1.21,5.35,5.35,0,0,1-2.17.57,6.46,6.46,0,0,1-3.41-.9,6.75,6.75,0,0,1-2.36-2.33,5.6,5.6,0,0,1-.85-2.93,4.2,4.2,0,0,1,.83-2.61,3.71,3.71,0,0,1,1.81-1.42c.65-.21,1.55-.54,2.69-1l3.54-1.4c1.22-.48,2.27-.88,3.13-1.19V536.8a7.29,7.29,0,0,0-.83-3.47,2.46,2.46,0,0,0-2.17-1.55,2,2,0,0,0-2,1.27,18.54,18.54,0,0,0-1,3,3.55,3.55,0,0,1-.83,1.53,2.48,2.48,0,0,1-2,.7,2.71,2.71,0,0,1-1.81-.7,2.16,2.16,0,0,1-.83-1.73,2.76,2.76,0,0,1,.21-1,7,7,0,0,1,.51-1,9.21,9.21,0,0,1,1.17-.88,19.23,19.23,0,0,1,2.25-1.32,17.13,17.13,0,0,1,2.95-1.19A10.92,10.92,0,0,1,458.46,529.87Zm-1,19.5a2.54,2.54,0,0,0,1.5-.41c.38-.28.57-.49.57-.62v-7.09q-.78.36-1.68.72a8.9,8.9,0,0,0-1.68.88,3.68,3.68,0,0,0-1.45,1.63,3.8,3.8,0,0,0-.36,1.79,2.81,2.81,0,0,0,1.08,2.35A3.45,3.45,0,0,0,457.42,549.37Z" transform="translate(-88.63 -303.79)"/><path class="cls-1" d="M480.44,530.9h5.74c.11,0,.18.08.24.23a1.5,1.5,0,0,1,.07.45,1.75,1.75,0,0,1-.36.9,2.69,2.69,0,0,1-.77.8h-4.92V545.8a5,5,0,0,0,.67,2.92,2.4,2.4,0,0,0,2.07.91,3.23,3.23,0,0,0,1.74-.54c.56-.37.88-.58.95-.65a.56.56,0,0,1,.21.28,1.11,1.11,0,0,1,.1.44,1.35,1.35,0,0,1-.13.52,1.1,1.1,0,0,1-.23.41,8.44,8.44,0,0,1-1,.94,10.13,10.13,0,0,1-1.92,1.26,5.2,5.2,0,0,1-2.48.6,7.74,7.74,0,0,1-3.08-.67,5.6,5.6,0,0,1-2.51-2.31,8.57,8.57,0,0,1-1-4.42V533.28H470.3a.39.39,0,0,1-.23-.31,2.6,2.6,0,0,1,0-.36,11.38,11.38,0,0,1,.78-1,6.76,6.76,0,0,1,.83-.75h2.22v-2.69a26.21,26.21,0,0,0,2.82-2.69c.91-1,1.75-1.88,2.51-2.64a1.5,1.5,0,0,1,.8-.25c.26,0,.41.08.44.25Z" transform="translate(-88.63 -303.79)"/><path class="cls-1" d="M495.13,540.32a10.3,10.3,0,0,0,.78,4.32,6.47,6.47,0,0,0,4.27,3.77,7.69,7.69,0,0,0,2,.34,6.32,6.32,0,0,0,3.52-.85,13.19,13.19,0,0,0,2.12-1.69.7.7,0,0,1,.44.37,1.11,1.11,0,0,1,.18.57,1.88,1.88,0,0,1-.16.93,13.29,13.29,0,0,1-1.7,1.86,12.51,12.51,0,0,1-3.13,2.12,9.66,9.66,0,0,1-4.32.93,11.1,11.1,0,0,1-5.23-1.27,9.91,9.91,0,0,1-3.9-3.62,10.38,10.38,0,0,1-1.48-5.66,12,12,0,0,1,.93-4.63,14.36,14.36,0,0,1,2.51-4,12.15,12.15,0,0,1,3.6-2.82,9,9,0,0,1,4.19-1,10.08,10.08,0,0,1,4.19.78,7.5,7.5,0,0,1,2.71,2,7.94,7.94,0,0,1,1.48,2.51,7.28,7.28,0,0,1,.46,2.41,2.71,2.71,0,0,1-.38,1.44,1.28,1.28,0,0,1-1,.68c-1.14.1-2.41.2-3.83.28s-2.84.16-4.29.21Zm.05-2,1,0c.57,0,1.23,0,2-.1l2.09-.15,1.45-.13c.31,0,.5-.15.57-.34a1.46,1.46,0,0,0,.11-.49,8.73,8.73,0,0,0-.32-2.33,4.62,4.62,0,0,0-1-1.91,2.27,2.27,0,0,0-1.81-.78,2.68,2.68,0,0,0-1.91.72,5.84,5.84,0,0,0-1.27,1.76,8.79,8.79,0,0,0-.7,2.1A9.23,9.23,0,0,0,495.18,538.3Z" transform="translate(-88.63 -303.79)"/></svg>